<?xml version="1.0" encoding="utf-8" ?>
<svg xmlns="http://www.w3.org/2000/svg" xmlns:xlink="http://www.w3.org/1999/xlink" width="22.9219" height="22.9219" viewBox="0 0 22.9219 22.9219">
	<path transform="matrix(1 -5.41489e-17 5.41489e-17 1 0 0)" d="M21.5156 22.9219L13.1406 14.5469C12.474 15.099 11.7083 15.5312 10.8438 15.8438C9.97917 16.151 9.08333 16.3047 8.15625 16.3047C5.875 16.3047 3.94531 15.5156 2.36719 13.9375C0.789062 12.3594 0 10.4323 0 8.15625C0 5.875 0.789062 3.94531 2.36719 2.36719C3.94531 0.789062 5.8724 0 8.14844 0C10.4297 0 12.3594 0.789062 13.9375 2.36719C15.5156 3.94531 16.3047 5.8724 16.3047 8.14844C16.3047 9.10156 16.1458 10.013 15.8281 10.8828C15.5104 11.7474 15.0833 12.5 14.5469 13.1406L22.9219 21.5156L21.5156 22.9219ZM8.15625 14.3047C9.86979 14.3047 11.3229 13.7083 12.5156 12.5156C13.7083 11.3229 14.3047 9.86719 14.3047 8.14844C14.3047 6.42969 13.7083 4.97656 12.5156 3.78906C11.3229 2.59635 9.86979 2 8.15625 2C6.4375 2 4.98177 2.59635 3.78906 3.78906C2.59635 4.97656 2 6.42969 2 8.14844C2 9.86719 2.59635 11.3229 3.78906 12.5156C4.98177 13.7083 6.4375 14.3047 8.15625 14.3047Z" fill-rule="nonzero" fill="rgb(25, 50, 56)"/>
</svg>
